HIERARCHY
ROOT Hips
{
 OFFSET 0.000000 0.000000 0.000000
 CHANNELS 6 Xposition Yposition Zposition Yrotation Xrotation Zrotation
 JOINT Chest
 {
  OFFSET 0.000000 9.585900 0.002600
  CHANNELS 3 Yrotation Xrotation Zrotation
  JOINT Chest2
  {
   OFFSET 0.000000 9.601200 -0.005300
   CHANNELS 3 Yrotation Xrotation Zrotation
   JOINT Chest3
   {
    OFFSET 0.000000 9.561800 0.000000
    CHANNELS 3 Yrotation Xrotation Zrotation
    JOINT Chest4
    {
     OFFSET 0.000000 9.552100 0.000000
     CHANNELS 3 Yrotation Xrotation Zrotation
     JOINT Neck
     {
      OFFSET 0.000000 14.453000 0.000000
      CHANNELS 3 Yrotation Xrotation Zrotation
      JOINT Head
      {
       OFFSET 0.000000 8.936500 -0.011300
       CHANNELS 3 Yrotation Xrotation Zrotation
       End Site
       {
        OFFSET 0.000000 17.073600 -0.006000
       }
      }
     }
     JOINT RightCollar
     {
      OFFSET -2.921100 9.558500 0.000000
      CHANNELS 3 Yrotation Xrotation Zrotation
      JOINT RightShoulder
      {
       OFFSET -13.519700 0.000000 0.000000
       CHANNELS 3 Yrotation Xrotation Zrotation
       JOINT RightElbow
       {
        OFFSET 0.000000 -29.696600 0.000000
        CHANNELS 3 Yrotation Xrotation Zrotation
        JOINT RightWrist
        {
         OFFSET 0.000000 -24.004700 0.000000
         CHANNELS 3 Yrotation Xrotation Zrotation
         End Site
         {
          OFFSET 0.000000 -17.728500 0.000000
         }
        }
       }
      }
     }
     JOINT LeftCollar
     {
      OFFSET 2.921100 9.558500 0.000000
      CHANNELS 3 Yrotation Xrotation Zrotation
      JOINT LeftShoulder
      {
       OFFSET 13.519700 0.000000 0.000000
       CHANNELS 3 Yrotation Xrotation Zrotation
       JOINT LeftElbow
       {
        OFFSET 0.000000 -29.696600 0.000000
        CHANNELS 3 Yrotation Xrotation Zrotation
        JOINT LeftWrist
        {
         OFFSET 0.000000 -24.004700 0.000000
         CHANNELS 3 Yrotation Xrotation Zrotation
         End Site
         {
          OFFSET 0.000000 -17.728500 0.000000
         }
        }
       }
      }
     }
    }
   }
  }
 }
 JOINT RightHip
 {
  OFFSET -7.771700 -0.012900 -0.001300
  CHANNELS 3 Yrotation Xrotation Zrotation
  JOINT RightKnee
  {
   OFFSET 0.000000 -40.869800 0.001200
   CHANNELS 3 Yrotation Xrotation Zrotation
   JOINT RightAnkle
   {
    OFFSET 0.000000 -39.717900 0.002100
    CHANNELS 3 Yrotation Xrotation Zrotation
    JOINT RightToe
    {
     OFFSET 0.000000 -4.965400 11.033500
     CHANNELS 3 Yrotation Xrotation Zrotation
     End Site
     {
      OFFSET 0.000000 -1.423100 5.872300
     }
    }
   }
  }
 }
 JOINT LeftHip
 {
  OFFSET 7.771700 -0.012900 -0.001300
  CHANNELS 3 Yrotation Xrotation Zrotation
  JOINT LeftKnee
  {
   OFFSET 0.000000 -40.869800 0.001200
   CHANNELS 3 Yrotation Xrotation Zrotation
   JOINT LeftAnkle
   {
    OFFSET 0.000000 -39.717900 0.002100
    CHANNELS 3 Yrotation Xrotation Zrotation
    JOINT LeftToe
    {
     OFFSET 0.000000 -4.965400 11.033500
     CHANNELS 3 Yrotation Xrotation Zrotation
     End Site
     {
      OFFSET 0.000000 -1.423100 5.872300
     }
    }
   }
  }
 }
}
MOTION
Frames: 14
Frame Time: 0.008333
0.000000 85.388000 0.000000 0.000000 -5.767877 0.000000 0.000000 11.653817 0.000000 0.000000 -5.885947 0.000000 0.000000 -0.000000 0.000000 0.000000 -0.000000 0.000000 0.000000 12.528835 0.000000 0.000000 0.711642 0.000000 0.000000 -0.000000 0.000000 0.000000 0.000000 -90.000000 0.000000 -2.309062 0.000000 0.000000 2.309062 0.000000 0.000000 -0.000000 0.000000 0.000000 -0.000000 90.000000 0.000000 -2.309062 0.000000 0.000000 2.309062 0.000000 0.000000 8.520406 0.000000 0.000000 1.905762 0.000000 -0.000000 -4.658285 0.000000 0.000000 -0.000000 0.000000 0.000000 8.520406 0.000000 0.000000 1.905762 0.000000 -0.000000 -4.658285 0.000000 0.000000 -0.000000 0.000000
-31.456244 47.075620 19.340402 175.008076 -31.921511 -4.757702 -0.051816 19.080790 2.751422 -0.096483 2.190954 0.298181 -0.212506 3.524252 0.474951 -0.624687 16.193789 2.132088 0.725159 20.410432 2.603867 0.567479 2.163939 4.518788 0.293397 1.244281 -2.957487 7.415090 -8.351424 -17.218949 -50.071752 -55.268437 101.933324 -2.592295 4.525896 -19.097091 0.814721 -0.418364 2.764600 -6.616783 -3.103470 13.684769 81.337350 -73.763065 -120.610497 -2.192767 9.335432 8.534671 0.313529 -55.651453 1.954144 158.090614 83.533523 167.219773 -4.979568 -19.536247 -5.826025 -0.005236 0.006196 0.032751 -6.218233 -56.564851 15.621407 -118.526428 81.440770 -122.017490 7.187331 -7.763589 4.460710 -0.057344 0.150613 -0.108754
-31.452736 47.075690 19.346730 174.996342 -31.934124 -4.756110 -0.060101 19.059164 2.742551 -0.114623 2.161716 0.293437 -0.185519 3.568412 0.482208 -0.628161 16.190060 2.133220 0.712802 20.366438 2.632378 0.540597 2.125534 4.579563 0.288242 1.204344 -2.956511 7.431159 -8.318176 -17.222260 -50.210965 -55.455953 102.031547 -2.531103 4.548931 -19.041880 0.780991 -0.521844 2.757448 -6.633636 -3.100065 13.743120 82.706925 -74.234068 -121.859018 -2.453331 9.329446 8.208415 0.335457 -55.640226 1.954904 158.208339 83.553465 167.353960 -4.984673 -19.546428 -5.823127 -0.004517 -0.004259 0.019212 -6.230053 -56.553376 15.624541 -118.580239 81.448822 -122.058701 7.207720 -7.762041 4.443192 -0.050535 0.139048 -0.084519
-31.449222 47.072957 19.358274 175.014963 -31.915446 -4.767619 -0.095816 19.006925 2.730055 -0.117681 2.150829 0.291634 -0.172594 3.595955 0.488097 -0.632359 16.164318 2.130720 0.673177 20.346820 2.667347 0.459455 2.095914 4.656157 0.290473 1.202334 -2.953256 7.449418 -8.352746 -17.253196 -50.295531 -55.582517 102.084593 -2.476484 4.584971 -19.014623 0.763298 -0.570277 2.749818 -6.679685 -3.129179 13.805946 83.898084 -74.630304 -122.949662 -2.665015 9.329225 7.937120 0.333484 -55.655275 1.952670 158.119816 83.572830 167.275749 -4.993091 -19.575586 -5.804036 -0.001328 0.016463 -0.002220 -6.278084 -56.569646 15.613536 -118.664121 81.466418 -122.095152 7.193392 -7.779447 4.366752 -0.000873 0.160125 -0.053703
-31.442726 47.074045 19.364511 174.999740 -31.943718 -4.770832 -0.096979 18.998383 2.726609 -0.117052 2.148697 0.291344 -0.187555 3.550744 0.479397 -0.611618 16.200800 2.139213 0.608198 20.332017 2.702884 0.328692 2.073004 4.744425 0.301443 1.234940 -2.950994 7.459020 -8.402727 -17.288866 -50.380700 -55.706700 102.156006 -2.430028 4.628715 -19.019385 0.756752 -0.597507 2.742044 -6.743826 -3.174664 13.868182 84.827503 -74.937377 -123.793979 -2.837101 9.350857 7.729751 0.342811 -55.628009 1.976904 158.093093 83.591802 167.253978 -4.985452 -19.586968 -5.792323 -0.012380 0.035641 -0.017789 -6.294952 -56.544252 15.616324 -118.778635 81.483345 -122.189228 7.239536 -7.769380 4.338232 -0.035874 0.145848 -0.056469
-31.438143 47.073248 19.373134 174.994736 -31.954605 -4.764654 -0.115491 18.974443 2.706880 -0.116536 2.146626 0.290998 -0.186724 3.547553 0.478796 -0.620409 16.145230 2.130047 0.530457 20.368921 2.745665 0.154638 2.053187 4.838795 0.319046 1.270705 -2.944461 7.478081 -8.406515 -17.320631 -50.451449 -55.821829 102.226864 -2.394824 4.676256 -19.054449 0.764703 -0.572774 2.739401 -6.817953 -3.219328 13.928828 85.450318 -75.155081 -124.342368 -2.973547 9.399456 7.580825 0.350827 -55.624658 1.986089 158.068784 83.604795 167.227976 -4.985867 -19.587000 -5.786652 -0.014329 0.044382 -0.024543 -6.308848 -56.536257 15.610952 -118.845833 81.494575 -122.244091 7.248644 -7.762419 4.319558 -0.048015 0.140026 -0.060010
-31.433387 47.071392 19.382967 174.996204 -31.956439 -4.760350 -0.129880 18.959641 2.693528 -0.116340 2.145651 0.290850 -0.186430 3.546035 0.478536 -0.629316 16.119156 2.126178 0.418649 20.357455 2.780996 -0.059584 2.036768 4.936200 0.322560 1.203784 -2.957359 7.505822 -8.346169 -17.328860 -50.527279 -55.945076 102.303274 -2.368113 4.733554 -19.104702 0.765538 -0.594599 2.727660 -6.892071 -3.263191 13.985369 85.756613 -75.291458 -124.590798 -3.069765 9.467858 7.476804 0.352467 -55.629159 1.988181 157.805734 83.612358 166.969535 -5.000586 -19.588774 -5.789797 0.001999 0.041045 -0.024971 -6.369513 -56.536845 15.636394 -118.926801 81.507006 -122.340236 7.281005 -7.744710 4.303455 -0.059431 0.121748 -0.060445
-31.427970 47.070442 19.390651 174.991796 -31.972803 -4.754288 -0.135743 18.959356 2.682937 -0.116217 2.144849 0.290804 -0.186370 3.544640 0.478525 -0.630362 16.115088 2.125336 0.275943 20.325008 2.812659 -0.307195 2.026160 5.036456 0.320727 1.146861 -2.973370 7.523227 -8.293767 -17.321280 -50.609290 -56.095279 102.383563 -2.348825 4.802597 -19.161343 0.761468 -0.621430 2.716784 -6.924306 -3.267032 14.014483 85.930937 -75.368714 -124.749731 -3.136611 9.540831 7.395988 0.356147 -55.611215 1.987967 157.411779 83.620673 166.580757 -4.999478 -19.611672 -5.794744 0.004539 0.054257 -0.030770 -6.367013 -56.522819 15.635071 -118.940533 81.508268 -122.343932 7.262167 -7.740369 4.295574 -0.069240 0.118472 -0.059088
-31.419490 47.069100 19.398779 174.978349 -31.987391 -4.762415 -0.143456 18.939358 2.678935 -0.115800 2.142471 0.290779 -0.204867 3.503133 0.465342 -0.615835 16.137950 2.132280 0.137394 20.330694 2.846008 -0.578445 2.020444 5.138387 0.345558 1.172575 -2.975628 7.534309 -8.288048 -17.328377 -50.675654 -56.242423 102.447977 -2.340730 4.869116 -19.222514 0.770537 -0.624906 2.706573 -6.998209 -3.328711 14.074611 85.554338 -75.340424 -124.306124 -3.173971 9.607967 7.320785 0.324420 -55.587254 2.045728 156.965067 83.639434 166.118561 -4.997908 -19.655162 -5.790808 -0.020990 0.091036 -0.039139 -6.409923 -56.509945 15.687800 -118.975549 81.508188 -122.391167 7.298009 -7.734680 4.284939 -0.071028 0.109116 -0.053542
-31.413479 47.067386 19.405832 174.981820 -32.003850 -4.766511 -0.180091 18.889915 2.643870 -0.117249 2.139695 0.290104 -0.188042 3.536580 0.477444 -0.628754 16.123245 2.126580 -0.009020 20.336275 2.877434 -0.866569 2.017611 5.238543 0.370212 1.195658 -2.975051 7.557925 -8.305731 -17.355465 -50.714739 -56.346282 102.482619 -2.344127 4.917891 -19.280162 0.774499 -0.643073 2.695901 -7.049731 -3.362230 14.132384 85.177684 -75.294744 -123.962504 -3.117890 9.676100 7.348002 0.298662 -55.571332 2.068741 156.414174 83.641226 165.568398 -5.033908 -19.655008 -5.804451 0.003493 0.063825 -0.028660 -6.442700 -56.496970 15.714333 -119.011822 81.507139 -122.435811 7.302277 -7.725331 4.284902 -0.086134 0.099621 -0.057169
-31.406606 47.067864 19.408488 174.986208 -32.049921 -4.777996 -0.191763 18.902598 2.637417 -0.111495 2.156297 0.295048 -0.195777 3.517690 0.471639 -0.634398 16.120625 2.123038 -0.169515 20.331192 2.903900 -1.166429 2.016235 5.334351 0.351859 1.112440 -2.999533 7.642881 -8.294565 -17.389503 -50.708258 -56.352734 102.460125 -2.355887 4.946797 -19.325685 0.784785 -0.630217 2.697000 -7.080316 -3.399667 14.167688 84.674215 -75.180815 -123.496902 -3.106839 9.719843 7.343747 0.268288 -55.522520 2.103542 156.308452 83.655096 165.458463 -5.022748 -19.650103 -5.811280 -0.003280 0.059179 -0.030355 -6.451990 -56.450990 15.725689 -119.076021 81.511113 -122.492760 7.301740 -7.729954 4.278005 -0.092545 0.098498 -0.056387
-31.405334 47.062818 19.417725 175.014470 -32.041148 -4.777635 -0.236646 18.862863 2.605654 -0.104057 2.172211 0.300663 -0.205299 3.500163 0.465197 -0.640175 16.118842 2.119396 -0.331897 20.325549 2.927580 -1.468896 2.014127 5.425537 0.362049 1.119927 -2.999299 7.687163 -8.322791 -17.422610 -50.719726 -56.388243 102.461954 -2.411147 4.955642 -19.354159 0.763091 -0.659368 2.685566 -7.063301 -3.379590 14.206217 84.155285 -75.053628 -123.009164 -3.089197 9.744998 7.303468 0.260359 -55.534496 2.072753 156.404023 83.668454 165.559772 -4.985574 -19.639845 -5.823775 0.009752 0.040392 -0.025101 -6.461446 -56.461358 15.709409 -119.147275 81.527518 -122.561119 7.257611 -7.744008 4.269003 -0.077582 0.113571 -0.045208
-31.402538 47.060080 19.422652 175.019622 -32.064089 -4.778471 -0.247724 18.869964 2.595467 -0.111387 2.154023 0.294729 -0.208581 3.500947 0.464232 -0.647156 16.117062 2.114845 -0.489824 20.318821 2.949081 -1.762687 2.010124 5.511374 0.374915 1.125772 -2.998380 7.730484 -8.354889 -17.452367 -50.702796 -56.363415 102.431966 -2.415216 4.962728 -19.371405 0.734593 -0.687311 2.673889 -7.018614 -3.346574 14.243294 83.674150 -74.927452 -122.560126 -3.077411 9.751966 7.230119 0.244942 -55.516789 2.079659 156.581379 83.685033 165.737074 -4.969048 -19.616921 -5.830165 0.021236 0.011657 -0.020688 -6.453489 -56.440096 15.706187 -119.169164 81.532479 -122.579138 7.237132 -7.750455 4.266005 -0.067502 0.121370 -0.041235
-31.399562 47.056870 19.427591 175.023251 -32.085749 -4.786814 -0.254813 18.876318 2.594187 -0.134638 2.113266 0.279684 -0.198625 3.524295 0.471797 -0.655114 16.114652 2.108703 -0.642073 20.310993 2.968475 -2.045579 2.004224 5.591767 0.356216 1.075203 -3.005917 7.799078 -8.337850 -17.460056 -50.695163 -56.380972 102.433743 -2.382656 4.999694 -19.358731 0.741552 -0.674448 2.674394 -6.989483 -3.342483 14.272145 83.296681 -74.818877 -122.208484 -3.072863 9.740261 7.116218 0.232991 -55.501665 2.086790 156.882711 83.703353 166.050156 -4.950029 -19.585613 -5.835070 0.033191 -0.019948 -0.019740 -6.440729 -56.423839 15.706695 -119.199347 81.532691 -122.599976 7.231645 -7.755347 4.260723 -0.065178 0.126482 -0.032584
